# Blender 5.0.1
# www.blender.org
mtllib model.mtl
o mesh
v 0.000000 -0.372062 -0.000000
v -0.274039 -0.372062 1.022727
v -0.748688 -0.372062 0.748688
v 0.000000 -0.372062 -0.000000
v -0.748688 -0.372062 0.748688
v -1.022727 -0.372062 0.274039
v 0.000000 -0.372062 -0.000000
v 0.274039 -0.372062 1.022727
v -0.274039 -0.372062 1.022727
v 0.000000 -0.372062 -0.000000
v -1.022727 -0.372062 0.274039
v -1.022727 -0.372062 -0.274039
v 0.000000 -0.372062 -0.000000
v -1.022727 -0.372062 -0.274039
v -0.748688 -0.372062 -0.748688
v 0.000000 -0.372062 -0.000000
v -0.748688 -0.372062 -0.748688
v -0.274039 -0.372062 -1.022727
v 0.000000 -0.372062 -0.000000
v 1.022727 -0.372062 0.274039
v 0.748688 -0.372062 0.748688
v 0.000000 -0.372062 -0.000000
v 0.748688 -0.372062 0.748688
v 0.274039 -0.372062 1.022727
v 0.000000 -0.372062 -0.000000
v 1.022727 -0.372062 -0.274039
v 1.022727 -0.372062 0.274039
v 0.200962 -0.372062 -0.750000
v -0.018269 -0.372062 -1.022727
v 0.127885 -0.372062 -1.022727
v 0.200962 -0.372062 -0.750000
v -0.274039 -0.372062 -1.022727
v -0.018269 -0.372062 -1.022727
v 0.000000 -0.372062 -0.000000
v -0.274039 -0.372062 -1.022727
v 0.200962 -0.372062 -0.750000
v 0.068209 -0.372062 -0.068209
v 1.014258 -0.372062 -0.288709
v 1.022727 -0.372062 -0.274039
v 0.068209 -0.372062 -0.068209
v 1.022727 -0.372062 -0.274039
v 0.000000 -0.372062 -0.000000
v 0.068209 -0.372062 -0.068209
v 0.748688 -0.372062 -0.748688
v 1.014258 -0.372062 -0.288709
v 0.068209 -0.372062 -0.068209
v 0.518699 -0.372062 -0.881473
v 0.748688 -0.372062 -0.748688
v 0.235066 -0.372062 -0.784104
v 0.400612 -0.372062 -0.949650
v 0.518699 -0.372062 -0.881473
v 0.235066 -0.372062 -0.784104
v 0.518699 -0.372062 -0.881473
v 0.068209 -0.372062 -0.068209
v 0.235066 -0.372062 -0.784104
v 0.288709 -0.372062 -1.014258
v 0.274039 -0.372062 -1.022727
v 0.235066 -0.372062 -0.784104
v 0.274039 -0.372062 -1.022727
v 0.200962 -0.372062 -0.750000
v 0.200962 -0.372062 -0.750000
v 0.127885 -0.372062 -1.022727
v 0.274039 -0.372062 -1.022727
v 0.235066 -0.372062 -0.784104
v 0.400612 -0.372062 -0.949650
v 0.288709 -0.372062 -1.014258
v 0.000000 -0.372062 -0.000000
v 0.235066 -0.372062 -0.784104
v 0.068209 -0.372062 -0.068209
v 0.000000 -0.372062 -0.000000
v 0.200962 -0.372062 -0.750000
v 0.235066 -0.372062 -0.784104
v -0.401924 0.502938 1.500000
v -0.748688 -0.372062 0.748688
v -0.274039 -0.372062 1.022727
v -0.401924 0.502938 1.500000
v -1.098076 0.502938 1.098076
v -0.748688 -0.372062 0.748688
v -1.500000 0.502938 0.401924
v -1.022727 -0.372062 0.274039
v -0.748688 -0.372062 0.748688
v -1.098076 0.502938 1.098076
v -1.500000 0.502938 0.401924
v -0.748688 -0.372062 0.748688
v -1.500000 0.502938 0.401924
v -1.022727 -0.372062 -0.274039
v -1.022727 -0.372062 0.274039
v -1.500000 0.502938 0.401924
v -1.500000 0.502938 -0.401924
v -1.022727 -0.372062 -0.274039
v -1.500000 0.502938 -0.401924
v -0.748688 -0.372062 -0.748688
v -1.022727 -0.372062 -0.274039
v -1.500000 0.502938 -0.401924
v -1.098076 0.502938 -1.098076
v -0.748688 -0.372062 -0.748688
v -0.401924 0.502938 -1.500000
v -0.274039 -0.372062 -1.022727
v -0.748688 -0.372062 -0.748688
v -1.098076 0.502938 -1.098076
v -0.401924 0.502938 -1.500000
v -0.748688 -0.372062 -0.748688
v 0.401924 0.502938 1.500000
v -0.274039 -0.372062 1.022727
v 0.274039 -0.372062 1.022727
v 0.401924 0.502938 1.500000
v -0.401924 0.502938 1.500000
v -0.274039 -0.372062 1.022727
v 0.401924 0.502938 1.500000
v 0.274039 -0.372062 1.022727
v 0.748688 -0.372062 0.748688
v 1.098076 0.502938 1.098076
v 0.401924 0.502938 1.500000
v 0.748688 -0.372062 0.748688
v 1.500000 0.502938 0.401924
v 0.748688 -0.372062 0.748688
v 1.022727 -0.372062 0.274039
v 1.500000 0.502938 0.401924
v 1.098076 0.502938 1.098076
v 0.748688 -0.372062 0.748688
v 1.500000 0.502938 -0.401924
v 1.022727 -0.372062 0.274039
v 1.022727 -0.372062 -0.274039
v 1.500000 0.502938 -0.401924
v 1.500000 0.502938 0.401924
v 1.022727 -0.372062 0.274039
v -0.401924 0.502938 -1.500000
v 0.274039 -0.372062 -1.022727
v -0.274039 -0.372062 -1.022727
v -0.401924 0.502938 -1.500000
v 0.401924 0.502938 -1.500000
v 0.274039 -0.372062 -1.022727
v 1.500000 0.502938 -0.401924
v 1.022727 -0.372062 -0.274039
v 0.748688 -0.372062 -0.748688
v 1.098076 0.502938 -1.098076
v 1.500000 0.502938 -0.401924
v 0.748688 -0.372062 -0.748688
v 0.401924 0.502938 -1.500000
v 0.748688 -0.372062 -0.748688
v 0.274039 -0.372062 -1.022727
v 0.401924 0.502938 -1.500000
v 1.098076 0.502938 -1.098076
v 0.748688 -0.372062 -0.748688
v 1.098076 0.502938 -1.098076
v 0.401924 0.502938 -1.500000
v 0.000000 0.502938 0.000000
v 1.500000 0.502938 -0.401924
v 1.098076 0.502938 -1.098076
v 0.000000 0.502938 0.000000
v 1.500000 0.502938 0.401924
v 1.500000 0.502938 -0.401924
v 0.000000 0.502938 0.000000
v 1.098076 0.502938 1.098076
v 1.500000 0.502938 0.401924
v 0.000000 0.502938 0.000000
v 0.401924 0.502938 1.500000
v 1.098076 0.502938 1.098076
v 0.000000 0.502938 0.000000
v -0.401924 0.502938 1.500000
v 0.401924 0.502938 1.500000
v 0.000000 0.502938 0.000000
v -1.098076 0.502938 1.098076
v -0.401924 0.502938 1.500000
v 0.000000 0.502938 0.000000
v -1.500000 0.502938 0.401924
v -1.098076 0.502938 1.098076
v 0.000000 0.502938 0.000000
v -1.500000 0.502938 -0.401924
v -1.500000 0.502938 0.401924
v 0.000000 0.502938 0.000000
v -1.098076 0.502938 -1.098076
v -1.500000 0.502938 -0.401924
v 0.000000 0.502938 0.000000
v -0.401924 0.502938 -1.500000
v -1.098076 0.502938 -1.098076
v 0.000000 0.502938 0.000000
v 0.401924 0.502938 -1.500000
v -0.401924 0.502938 -1.500000
v 0.000000 0.502938 0.000000
vn -0.0000 -1.0000 -0.0000
vn -0.0000 1.0000 -0.0000
vn -0.4389 -0.4789 0.7603
vn -0.7603 -0.4789 0.4389
vn -0.8779 -0.4789 -0.0000
vn -0.7603 -0.4789 -0.4389
vn -0.4389 -0.4789 -0.7603
vn -0.0000 -0.4789 0.8779
vn 0.4389 -0.4789 0.7603
vn 0.7603 -0.4789 0.4389
vn 0.8779 -0.4789 -0.0000
vn -0.0000 -0.4789 -0.8779
vn 0.7603 -0.4789 -0.4389
vn 0.4389 -0.4789 -0.7603
vt 0.046875 0.984375
vt 0.015625 0.984375
vt 0.015625 0.953125
vt 0.109375 0.984375
vt 0.078125 0.984375
vt 0.078125 0.953125
vt 0.171875 0.984375
vt 0.140625 0.984375
vt 0.140625 0.953125
vt 0.234375 0.984375
vt 0.203125 0.984375
vt 0.203125 0.953125
vt 0.296875 0.984375
vt 0.265625 0.984375
vt 0.265625 0.953125
vt 0.359375 0.984375
vt 0.328125 0.984375
vt 0.328125 0.953125
vt 0.421875 0.984375
vt 0.390625 0.984375
vt 0.390625 0.953125
vt 0.484375 0.984375
vt 0.453125 0.984375
vt 0.453125 0.953125
vt 0.546875 0.984375
vt 0.515625 0.984375
vt 0.515625 0.953125
vt 0.609375 0.984375
vt 0.578125 0.984375
vt 0.578125 0.953125
vt 0.671875 0.984375
vt 0.640625 0.984375
vt 0.640625 0.953125
vt 0.734375 0.984375
vt 0.703125 0.984375
vt 0.703125 0.953125
vt 0.796875 0.984375
vt 0.765625 0.984375
vt 0.765625 0.953125
vt 0.859375 0.984375
vt 0.828125 0.984375
vt 0.828125 0.953125
vt 0.921875 0.984375
vt 0.890625 0.984375
vt 0.890625 0.953125
vt 0.984375 0.984375
vt 0.953125 0.984375
vt 0.953125 0.953125
vt 0.046875 0.921875
vt 0.015625 0.921875
vt 0.015625 0.890625
vt 0.109375 0.921875
vt 0.078125 0.921875
vt 0.078125 0.890625
vt 0.171875 0.921875
vt 0.140625 0.921875
vt 0.140625 0.890625
vt 0.234375 0.921875
vt 0.203125 0.921875
vt 0.203125 0.890625
vt 0.296875 0.921875
vt 0.265625 0.921875
vt 0.265625 0.890625
vt 0.359375 0.921875
vt 0.328125 0.921875
vt 0.328125 0.890625
vt 0.421875 0.921875
vt 0.390625 0.921875
vt 0.390625 0.890625
vt 0.484375 0.921875
vt 0.453125 0.921875
vt 0.453125 0.890625
vt 0.546875 0.921875
vt 0.515625 0.921875
vt 0.515625 0.890625
vt 0.609375 0.921875
vt 0.578125 0.921875
vt 0.578125 0.890625
vt 0.671875 0.921875
vt 0.640625 0.921875
vt 0.640625 0.890625
vt 0.734375 0.921875
vt 0.703125 0.921875
vt 0.703125 0.890625
vt 0.796875 0.921875
vt 0.765625 0.921875
vt 0.765625 0.890625
vt 0.859375 0.921875
vt 0.828125 0.921875
vt 0.828125 0.890625
vt 0.921875 0.921875
vt 0.890625 0.921875
vt 0.890625 0.890625
vt 0.984375 0.921875
vt 0.953125 0.921875
vt 0.953125 0.890625
vt 0.046875 0.859375
vt 0.015625 0.859375
vt 0.015625 0.828125
vt 0.109375 0.859375
vt 0.078125 0.859375
vt 0.078125 0.828125
vt 0.171875 0.859375
vt 0.140625 0.859375
vt 0.140625 0.828125
vt 0.234375 0.859375
vt 0.203125 0.859375
vt 0.203125 0.828125
vt 0.296875 0.859375
vt 0.265625 0.859375
vt 0.265625 0.828125
vt 0.359375 0.859375
vt 0.328125 0.859375
vt 0.328125 0.828125
vt 0.421875 0.859375
vt 0.390625 0.859375
vt 0.390625 0.828125
vt 0.484375 0.859375
vt 0.453125 0.859375
vt 0.453125 0.828125
vt 0.546875 0.859375
vt 0.515625 0.859375
vt 0.515625 0.828125
vt 0.609375 0.859375
vt 0.578125 0.859375
vt 0.578125 0.828125
vt 0.671875 0.859375
vt 0.640625 0.859375
vt 0.640625 0.828125
vt 0.734375 0.859375
vt 0.703125 0.859375
vt 0.703125 0.828125
vt 0.796875 0.859375
vt 0.765625 0.859375
vt 0.765625 0.828125
vt 0.859375 0.859375
vt 0.828125 0.859375
vt 0.828125 0.828125
vt 0.921875 0.859375
vt 0.890625 0.859375
vt 0.890625 0.828125
vt 0.984375 0.859375
vt 0.953125 0.859375
vt 0.953125 0.828125
vt 0.046875 0.796875
vt 0.015625 0.796875
vt 0.015625 0.765625
vt 0.109375 0.796875
vt 0.078125 0.796875
vt 0.078125 0.765625
vt 0.171875 0.796875
vt 0.140625 0.796875
vt 0.140625 0.765625
vt 0.234375 0.796875
vt 0.203125 0.796875
vt 0.203125 0.765625
vt 0.296875 0.796875
vt 0.265625 0.796875
vt 0.265625 0.765625
vt 0.359375 0.796875
vt 0.328125 0.796875
vt 0.328125 0.765625
vt 0.421875 0.796875
vt 0.390625 0.796875
vt 0.390625 0.765625
vt 0.484375 0.796875
vt 0.453125 0.796875
vt 0.453125 0.765625
vt 0.546875 0.796875
vt 0.515625 0.796875
vt 0.515625 0.765625
vt 0.609375 0.796875
vt 0.578125 0.796875
vt 0.578125 0.765625
vt 0.671875 0.796875
vt 0.640625 0.796875
vt 0.640625 0.765625
vt 0.734375 0.796875
vt 0.703125 0.796875
vt 0.703125 0.765625
s 0
usemtl Material_0
f 1/1/1 2/2/1 3/3/1
f 4/4/1 5/5/1 6/6/1
f 7/7/1 8/8/1 9/9/1
f 10/10/1 11/11/1 12/12/1
f 13/13/1 14/14/1 15/15/1
f 16/16/1 17/17/1 18/18/1
f 19/19/1 20/20/1 21/21/1
f 22/22/1 23/23/1 24/24/1
f 25/25/1 26/26/1 27/27/1
f 28/28/1 29/29/1 30/30/1
f 31/31/1 32/32/1 33/33/1
f 34/34/1 35/35/1 36/36/1
f 37/37/1 38/38/1 39/39/1
f 40/40/1 41/41/1 42/42/1
f 43/43/1 44/44/1 45/45/1
f 46/46/1 47/47/1 48/48/1
f 49/49/1 50/50/1 51/51/1
f 52/52/1 53/53/1 54/54/1
f 55/55/2 56/56/2 57/57/2
f 58/58/2 59/59/2 60/60/2
f 61/61/1 62/62/1 63/63/1
f 64/64/2 65/65/2 66/66/2
f 67/67/1 68/68/1 69/69/1
f 70/70/1 71/71/1 72/72/1
f 73/73/3 74/74/3 75/75/3
f 76/76/3 77/77/3 78/78/3
f 79/79/4 80/80/4 81/81/4
f 82/82/4 83/83/4 84/84/4
f 85/85/5 86/86/5 87/87/5
f 88/88/5 89/89/5 90/90/5
f 91/91/6 92/92/6 93/93/6
f 94/94/6 95/95/6 96/96/6
f 97/97/7 98/98/7 99/99/7
f 100/100/7 101/101/7 102/102/7
f 103/103/8 104/104/8 105/105/8
f 106/106/8 107/107/8 108/108/8
f 109/109/9 110/110/9 111/111/9
f 112/112/9 113/113/9 114/114/9
f 115/115/10 116/116/10 117/117/10
f 118/118/10 119/119/10 120/120/10
f 121/121/11 122/122/11 123/123/11
f 124/124/11 125/125/11 126/126/11
f 127/127/12 128/128/12 129/129/12
f 130/130/12 131/131/12 132/132/12
f 133/133/13 134/134/13 135/135/13
f 136/136/13 137/137/13 138/138/13
f 139/139/14 140/140/14 141/141/14
f 142/142/14 143/143/14 144/144/14
f 145/145/2 146/146/2 147/147/2
f 148/148/2 149/149/2 150/150/2
f 151/151/2 152/152/2 153/153/2
f 154/154/2 155/155/2 156/156/2
f 157/157/2 158/158/2 159/159/2
f 160/160/2 161/161/2 162/162/2
f 163/163/2 164/164/2 165/165/2
f 166/166/2 167/167/2 168/168/2
f 169/169/2 170/170/2 171/171/2
f 172/172/2 173/173/2 174/174/2
f 175/175/2 176/176/2 177/177/2
f 178/178/2 179/179/2 180/180/2
